<svg width="40" height="40" viewBox="0 0 40 40" fill="none" xmlns="http://www.w3.org/2000/svg">
<path d="M32.4693 21.4687C32.5335 21 32.5656 20.5156 32.5656 20C32.5656 19.5 32.5335 19 32.4532 18.5312L35.7141 16.0625C36.0032 15.8437 36.0835 15.4219 35.9068 15.1094L32.8227 9.92188C32.6299 9.57812 32.2283 9.46875 31.8749 9.57812L28.0358 11.0781C27.2326 10.4844 26.3812 9.98437 25.4335 9.60937L24.8552 5.64062C24.791 5.26562 24.4697 5 24.0842 5H17.9158C17.5303 5 17.2251 5.26562 17.1608 5.64062L16.5826 9.60937C15.6348 9.98437 14.7674 10.5 13.9803 11.0781L10.1411 9.57812C9.78775 9.45312 9.38616 9.57812 9.1934 9.92188L6.1253 15.1094C5.93253 15.4375 5.99679 15.8437 6.31806 16.0625L9.57893 18.5312C9.49861 19 9.43436 19.5156 9.43436 20C9.43436 20.4844 9.46648 21 9.5468 21.4687L6.28593 23.9375C5.99679 24.1562 5.91647 24.5781 6.09317 24.8906L9.17734 30.0781C9.3701 30.4219 9.77169 30.5312 10.1251 30.4219L13.9642 28.9219C14.7674 29.5156 15.6188 30.0156 16.5665 30.3906L17.1448 34.3594C17.2251 34.7344 17.5303 35 17.9158 35H24.0842C24.4697 35 24.791 34.7344 24.8392 34.3594L25.4174 30.3906C26.3652 30.0156 27.2326 29.5156 28.0197 28.9219L31.8589 30.4219C32.2123 30.5469 32.6138 30.4219 32.8066 30.0781L35.8908 24.8906C36.0835 24.5469 36.0032 24.1562 35.698 23.9375L32.4693 21.4687ZM21 25.625C17.8194 25.625 15.2172 23.0938 15.2172 20C15.2172 16.9062 17.8194 14.375 21 14.375C24.1806 14.375 26.7828 16.9062 26.7828 20C26.7828 23.0938 24.1806 25.625 21 25.625Z" fill="black"/>
</svg>
